<svg xmlns="http://www.w3.org/2000/svg" viewBox="0 0 91.18 28.69"><title>logo_horizontal</title><path d="M49.12,11.81a4,4,0,0,0-1.44-.94,5.17,5.17,0,0,0-1.91-.33,11.19,11.19,0,0,0-2,.16c-.62.1-1.14.21-1.56.32V22.91h2.08v-3.5a3.92,3.92,0,0,0,.88.35,4.25,4.25,0,0,0,1.17.15,4,4,0,0,0,1.69-.34,3.13,3.13,0,0,0,1.24-1,4.48,4.48,0,0,0,.78-1.47,6.67,6.67,0,0,0,.25-1.9,5.47,5.47,0,0,0-.32-2A3.79,3.79,0,0,0,49.12,11.81Zm-1.43,5.54a1.85,1.85,0,0,1-1.66.78,2.83,2.83,0,0,1-1-.17,3.33,3.33,0,0,1-.73-.35V12.47a3.19,3.19,0,0,1,.63-.11l.6,0a2.45,2.45,0,0,1,2,.78,3.37,3.37,0,0,1,.62,2.16A3.64,3.64,0,0,1,47.69,17.35Z"/><path d="M56.18,10.51a4.19,4.19,0,0,0-1.55.3,3.88,3.88,0,0,0-1.34.89,4.37,4.37,0,0,0-.94,1.49A5.73,5.73,0,0,0,52,15.27a6.1,6.1,0,0,0,.28,1.86,4.23,4.23,0,0,0,.85,1.49,3.83,3.83,0,0,0,1.44,1,5.67,5.67,0,0,0,2.06.34c.31,0,.62,0,.92,0s.58-.08.83-.13a6.34,6.34,0,0,0,.69-.17,2,2,0,0,0,.47-.19l-.27-1.69a7.33,7.33,0,0,1-1,.29,6.6,6.6,0,0,1-1.38.13,2.92,2.92,0,0,1-2-.59,2.34,2.34,0,0,1-.77-1.67h5.94a3,3,0,0,1,0-.4V15.1a5,5,0,0,0-1-3.44A3.71,3.71,0,0,0,56.18,10.51Zm-2,3.83a4.13,4.13,0,0,1,.19-.77,2.09,2.09,0,0,1,.38-.67,2.06,2.06,0,0,1,.61-.48,1.87,1.87,0,0,1,.85-.17,1.77,1.77,0,0,1,.79.16,1.65,1.65,0,0,1,.57.45,2,2,0,0,1,.36.67,3,3,0,0,1,.12.81Z"/><path d="M69,11.69a3,3,0,0,0-1.17-.85,4.92,4.92,0,0,0-1.84-.3,12.65,12.65,0,0,0-2.13.16,14.15,14.15,0,0,0-1.57.32v8.71H64.4V12.47c.14,0,.35-.05.64-.09a6,6,0,0,1,.83-.05,2.7,2.7,0,0,1,.9.14,1.35,1.35,0,0,1,.58.47,2.38,2.38,0,0,1,.31.82A7.33,7.33,0,0,1,67.75,15v4.73h2.09V14.67A7.32,7.32,0,0,0,69.65,13,3.09,3.09,0,0,0,69,11.69Z"/><path d="M80.84,6.81a1.3,1.3,0,0,0-.9.34,1.23,1.23,0,0,0-.38.95,1.21,1.21,0,0,0,.38.93,1.3,1.3,0,0,0,.9.34A1.32,1.32,0,0,0,81.75,9a1.2,1.2,0,0,0,.37-.93,1.23,1.23,0,0,0-.37-.95A1.32,1.32,0,0,0,80.84,6.81Z"/><path d="M74.36,8l-2.08.35v7.79a7.54,7.54,0,0,0,.15,1.59A2.9,2.9,0,0,0,73,18.92a2.25,2.25,0,0,0,1,.75,4.19,4.19,0,0,0,1.6.26A5.08,5.08,0,0,0,77,19.77a6.35,6.35,0,0,0,1-.33l-.34-1.64a6.7,6.7,0,0,1-.7.22,3.83,3.83,0,0,1-1,.12,1.33,1.33,0,0,1-1.16-.46,2.59,2.59,0,0,1-.35-1.55V12.47h5.45v7.26H81.9v-9H74.36Z"/><path d="M91,12.61a2.8,2.8,0,0,0-.6-1.13,2.93,2.93,0,0,0-1.12-.72,5.16,5.16,0,0,0-1.74-.25,9.25,9.25,0,0,0-1.62.13,7.72,7.72,0,0,0-1.15.28L85,12.61a5.83,5.83,0,0,1,1-.25,9,9,0,0,1,1.33-.1,2.46,2.46,0,0,1,.88.14,1.39,1.39,0,0,1,.57.38,1.42,1.42,0,0,1,.31.58,3.1,3.1,0,0,1,.08.69v.34c-.29-.06-.55-.11-.81-.14a6.09,6.09,0,0,0-.72-.05,6.64,6.64,0,0,0-1.42.15,3.63,3.63,0,0,0-1.19.48A2.39,2.39,0,0,0,83.91,17a3.08,3.08,0,0,0,.27,1.36,2.28,2.28,0,0,0,.73.89,3.09,3.09,0,0,0,1.15.5,6.74,6.74,0,0,0,1.48.15,16,16,0,0,0,2.19-.14c.65-.1,1.13-.18,1.45-.25V14.06A5.59,5.59,0,0,0,91,12.61Zm-1.83,5.55a7.67,7.67,0,0,1-1.46.1A2.5,2.5,0,0,1,86.45,18,1.14,1.14,0,0,1,86,17a1.08,1.08,0,0,1,.17-.63,1.32,1.32,0,0,1,.46-.38,2.1,2.1,0,0,1,.63-.18,4.26,4.26,0,0,1,.7-.07,4,4,0,0,1,.72.07,4.31,4.31,0,0,1,.5.09Z"/><path d="M27.08,16.74l0,0h0l-7.8-4.33a7.23,7.23,0,0,1-2.91.91l5.87,3.26-.09,0A6,6,0,0,0,19,24.41a8,8,0,0,0,1.9-1.26,3.51,3.51,0,0,1-.16-1.07,3.74,3.74,0,1,1,4.14,3.72,13.18,13.18,0,0,1-2.29,1.92,5.76,5.76,0,0,0,1.89.31v0a6,6,0,0,0,2.63-11.29Z"/><path d="M17.08,22a7.21,7.21,0,0,1,.58-2.75L11.87,22.7v-.1a5.17,5.17,0,0,0,0-.68A5.93,5.93,0,0,0,6.62,16c0,.15,0,.31,0,.49a8.76,8.76,0,0,0,.15,1.77,3.74,3.74,0,0,1,1.41,6.68l-.55.34A3.67,3.67,0,0,1,6,25.66a3.75,3.75,0,0,1-3.74-3.74A3.82,3.82,0,0,1,2.5,20.5a13.59,13.59,0,0,1-.54-3A6,6,0,0,0,6,27.88v0a5.88,5.88,0,0,0,2.73-.66,6.46,6.46,0,0,0,.68-.41l7.71-4.64Z"/><path d="M11.89,17.6v-7l.08.07a5.91,5.91,0,0,0,3.56,1.26h.11a5.89,5.89,0,0,0,4.65-2.26,8.31,8.31,0,0,0-2-1.08A3.71,3.71,0,0,1,15.64,9.7h-.07A3.72,3.72,0,0,1,11.9,6V5.83a3.73,3.73,0,0,1,3.73-3.61h.06a3.75,3.75,0,0,1,3,1.58A13.37,13.37,0,0,1,21.5,4.92,5.94,5.94,0,0,0,15.73,0h-.09a6,6,0,0,0-6,5.59v.06h0v.19a0,0,0,0,0,0,0,.15.15,0,0,0,0,.07v9.65A7.37,7.37,0,0,1,11.89,17.6Z"/><path d="M5.9,24.18h0a2.27,2.27,0,0,0,1.92-1,9.84,9.84,0,0,1,.43-13.5V6.79A12.8,12.8,0,0,0,6.77,8a12.06,12.06,0,0,0-.95,16.14Z"/><path d="M13.77,4.66a2.34,2.34,0,0,0-.41,1.27,2.15,2.15,0,0,0,.21,1,9.2,9.2,0,0,1,1.81-.14,9.88,9.88,0,0,1,9.3,7.07l2.52,1.39A12.05,12.05,0,0,0,15.42,4.58,15.44,15.44,0,0,0,13.77,4.66Z"/><path d="M26.44,21.06a2.25,2.25,0,0,0-1.89-1.22,10,10,0,0,1-2.42,3.83,9.81,9.81,0,0,1-6.91,2.83h-.16a10.35,10.35,0,0,1-2-.23l-2.5,1.51a12,12,0,0,0,4.43.92h.2a12,12,0,0,0,8.45-3.46A12.08,12.08,0,0,0,26.44,21.06Z"/></svg>