<svg xmlns="http://www.w3.org/2000/svg" viewBox="0 0 1000 1000"><defs><style>.a{fill:#202020;stroke:#000;stroke-miterlimit:10;}</style></defs><title>pentia_logo_vertical</title><path class="a" d="M121.85,840.4q0-28.41-12.78-44.25c-8.46-10.54-22.31-15.88-41.34-15.88-3.86,0-8,.23-12.42.62a61.15,61.15,0,0,0-12.77,2.26v105a66,66,0,0,0,14.93,7.35,60.48,60.48,0,0,0,19.84,3.41c15.4,0,26.67-5.37,33.84-16s10.7-24.78,10.7-42.52m43.58-.76a134.37,134.37,0,0,1-5.27,38.79c-3.83,11.54-8.94,21.72-15.8,30a66.35,66.35,0,0,1-25.45,19.77c-10.18,4.66-21.77,7-34.6,7a85.82,85.82,0,0,1-23.89-3.21,78.54,78.54,0,0,1-17.88-7v71.51H0v-243a313.54,313.54,0,0,1,32-6.65,242.52,242.52,0,0,1,40-3.13c14.62,0,27.54,2.22,39,6.65a80.25,80.25,0,0,1,47.88,49.31c4.49,11.86,6.54,25.2,6.54,39.89"/><path class="a" d="M322.59,821.46a58,58,0,0,0-2.41-16.71,39.61,39.61,0,0,0-7.33-13.69,34.05,34.05,0,0,0-11.53-9.19c-4.49-2.24-10-3.29-16.27-3.29q-10.05,0-17.24,3.6a40.43,40.43,0,0,0-12.47,9.71,45,45,0,0,0-7.91,13.71,82.28,82.28,0,0,0-3.85,15.86ZM199.14,840.4c0-16.11,2.55-30.38,7.32-42.56s11.18-22.34,19.14-30.35A79.14,79.14,0,0,1,253,749.23a85.46,85.46,0,0,1,31.73-6.2c25.31,0,45,7.85,59.27,23.52,14.15,15.72,21.2,39.24,21.2,70.31,0,2.44,0,5-.08,7.89-.22,3-.52,5.6-.58,8.06H243.18c1.28,14.79,6.39,26.16,15.65,34.11C268.11,895,281.5,899,299.1,899a129.74,129.74,0,0,0,28.38-2.72c8.34-1.89,15.29-3.83,20.08-5.94l5.56,34.7a47.35,47.35,0,0,1-9.61,3.83,102.5,102.5,0,0,1-14.09,3.36c-5.11,1.09-10.88,1.93-17,2.67a150.41,150.41,0,0,1-18.72,1c-16,0-30.07-2.38-42.17-7-11.85-5-21.73-11.49-29.39-20.13a85.28,85.28,0,0,1-17.26-30.34,119.74,119.74,0,0,1-5.73-38"/><path class="a" d="M410.14,753.57a266.32,266.32,0,0,1,32-6.65,276.38,276.38,0,0,1,43.67-3.13c14.78,0,27.48,2,37.58,6.13s18,9.86,24,17.25c6.13,7.35,10.18,16.27,12.62,26.65a147.64,147.64,0,0,1,3.77,34.32V931.46H521.16V834.85a139.88,139.88,0,0,0-1.94-25.23c-1.31-6.91-3.37-12.45-6.28-16.89a25.71,25.71,0,0,0-11.84-9.46c-5.07-2-11.37-3-18.46-3a134,134,0,0,0-17,1.07c-5.91.74-10.2,1.31-13,1.81V931.46H410.14Z"/><path class="a" d="M788.7,719.9a27,27,0,0,0,18.42-7q7.7-7.15,7.68-19.06c0-8.14-2.55-14.64-7.68-19.25a27.77,27.77,0,0,0-37,0c-5.11,4.61-7.7,11.11-7.7,19.25,0,7.94,2.59,14.29,7.7,19.06a27,27,0,0,0,18.56,7"/><path class="a" d="M656.29,747.68V692.12l-42.67,7v159.2a155.92,155.92,0,0,0,3.17,32.47c2.1,9.41,5.71,17.66,10.88,24.22a46,46,0,0,0,21,15.29c8.84,3.69,19.8,5.37,32.75,5.37,10.82,0,20.26-1.06,28.16-3.43A124.87,124.87,0,0,0,729,925.71L722,892a109.55,109.55,0,0,1-14.34,4.65,79.56,79.56,0,0,1-20.5,2.38c-11.22,0-19.26-3.14-23.81-9.42-4.85-6.29-7-16.9-7-31.59V783.15H767.6V931.46h42.67V747.68Z"/><path class="a" d="M929.05,901.44c13.06,0,23.06-.63,29.78-1.91V852.27a86.41,86.41,0,0,0-10.16-1.92,93.8,93.8,0,0,0-14.81-1.27,99.85,99.85,0,0,0-14.22,1.27,41.23,41.23,0,0,0-12.92,3.84,25.12,25.12,0,0,0-9.36,7.72c-2.37,3.57-3.45,7.7-3.45,12.89,0,10,3.13,17.06,9.44,20.9s14.91,5.74,25.7,5.74M925.46,743q21.13,0,35.59,5.29T984,763a56.24,56.24,0,0,1,12.25,23,114.61,114.61,0,0,1,3.71,29.69V927.17c-6.55,1.49-16.5,3.05-29.75,5.09a296.43,296.43,0,0,1-44.79,3,133.65,133.65,0,0,1-30.19-3.21,58.72,58.72,0,0,1-23.41-10.22,46.38,46.38,0,0,1-15.07-18.18c-3.67-7.39-5.53-16.84-5.53-27.8,0-10.52,2-19.38,6.29-26.8a51.12,51.12,0,0,1,16.64-17.68,74.31,74.31,0,0,1,24.35-9.81,135.8,135.8,0,0,1,29-3,120.51,120.51,0,0,1,14.81,1,154.84,154.84,0,0,1,16.46,2.87v-7a58.11,58.11,0,0,0-1.64-14,28.54,28.54,0,0,0-17.86-19.64c-4.83-1.84-10.85-2.74-18-2.74a169.71,169.71,0,0,0-27.12,2,121.9,121.9,0,0,0-20,5l-5.28-34.47c5.32-1.92,13.17-3.83,23.5-5.72A189,189,0,0,1,925.46,743"/><path class="a" d="M630.6,521.61a110.15,110.15,0,0,0,35.39,5.7v.93l.16-.94c61.47-.28,111.3-50.47,111.07-111.86a110.51,110.51,0,0,0-62.6-99.55l-.94-.45.12-.18L567.49,234.74A136.45,136.45,0,0,1,513,252.1l110.21,60.55-1.74.76a111.62,111.62,0,0,0-58.26,146.53,156.75,156.75,0,0,0,35.53-23.67,70,70,0,0,1,66.62-90.34,70,70,0,0,1,8.09,139.51,247.4,247.4,0,0,1-42.86,36.17"/><path class="a" d="M244.73,331.93a111.8,111.8,0,0,0-36.37,82.7c.27,61.48,50.46,111.32,111.89,111.1v.93l.09-.93a110.89,110.89,0,0,0,51-12.6A128.75,128.75,0,0,0,384,505.49L527.87,418v-3.7a137.05,137.05,0,0,1,10.66-51.4L430.45,428.47l.22-1.9a102.8,102.8,0,0,0,.75-12.76A111.09,111.09,0,0,0,331.8,303.37c-.21,2.85-.32,5.82-.35,9.13a159.66,159.66,0,0,0,3,33.12,70,70,0,0,1,26.76,125L351,476.87a68,68,0,0,1-30.81,7.27,70.06,70.06,0,0,1-70.3-69.66,69.23,69.23,0,0,1,5.17-26.64,248.35,248.35,0,0,1-10.34-55.91"/><path class="a" d="M388.88,295.33A139.39,139.39,0,0,1,430.52,333l-.43-131.13,1.52,1.17a110.76,110.76,0,0,0,66.69,23.49h1.92a110.67,110.67,0,0,0,87-42.7,159.85,159.85,0,0,0-37.36-20.05A69.45,69.45,0,0,1,500.07,185h-1.23a69.75,69.75,0,0,1-69-68.28v-3.84A69.78,69.78,0,0,1,499.5,45h1.14a70.07,70.07,0,0,1,56,29.39A243.47,243.47,0,0,1,609.5,95.13,111.37,111.37,0,0,0,501.19,3.43c-.6,0-1.21,0-1.8,0a111.58,111.58,0,0,0-110.81,105l-.05,1-.23,0v2.74c0,.29,0,.53,0,.77a5.34,5.34,0,0,0,0,.6c0,.47,0,.89,0,1.3s0,.73,0,1.1Z"/><path class="a" d="M317.31,456.46a14.35,14.35,0,0,0,1.6.06h.16a42.57,42.57,0,0,0,35.85-19.44,184.18,184.18,0,0,1,7.21-252.52L362,131a226,226,0,0,0-94.73,180.78,223.16,223.16,0,0,0,50.09,144.73"/><path class="a" d="M669.56,261.9l47.16,25.92a225.49,225.49,0,0,0-221-198.66,252.15,252.15,0,0,0-30.8,1.66,42.46,42.46,0,0,0-7.68,23.72,41.83,41.83,0,0,0,4,18.42,178.48,178.48,0,0,1,34-2.68A184.88,184.88,0,0,1,669.56,261.9"/><path class="a" d="M406.84,523.31a224.11,224.11,0,0,0,83,16.85l3.8,0A225.88,225.88,0,0,0,703,396.62,42.28,42.28,0,0,0,667.48,374a184.6,184.6,0,0,1-174,125.17c-1,0-2.08,0-3.13,0a184,184,0,0,1-36.77-4.27Z"/></svg>